<svg xmlns="http://www.w3.org/2000/svg" width="200" height="200" style="isolation:isolate" viewBox="0 0 150 150"><circle cx="75" cy="75" r="65" fill="#2B3A42" vector-effect="non-scaling-stroke"/><path fill="#61DAFB" d="M75 66.977a8.022 8.022 0 1 0 0 16.043 8.022 8.022 0 0 0 0-16.043ZM52.53 90.954l-1.77-.45C37.567 87.171 30 81.512 30 74.983s7.567-12.187 20.76-15.521l1.77-.446.499 1.755a88.216 88.216 0 0 0 5.111 13.417l.379.799-.379.799a87.367 87.367 0 0 0-5.111 13.417l-.499 1.751Zm-2.591-27.393c-10.028 2.816-16.182 7.125-16.182 11.422 0 4.294 6.154 8.603 16.182 11.423a93.57 93.57 0 0 1 4.432-11.423 92.848 92.848 0 0 1-4.432-11.422ZM97.47 90.954l-.499-1.758a87.597 87.597 0 0 0-5.115-13.414l-.378-.799.378-.799a87.735 87.735 0 0 0 5.115-13.417l.499-1.755 1.774.446C112.433 62.792 120 68.451 120 74.983c0 6.533-7.567 12.188-20.756 15.521l-1.774.45Zm-1.841-15.971c1.8 3.896 3.288 7.725 4.432 11.423 10.032-2.82 16.182-7.129 16.182-11.423 0-4.297-6.154-8.602-16.182-11.422a92.848 92.848 0 0 1-4.432 11.422ZM49.912 63.542l-.498-1.751c-3.709-13.073-2.584-22.44 3.086-25.71 5.561-3.21 14.49.581 23.846 10.185l1.275 1.308-1.275 1.309a88.335 88.335 0 0 0-9.082 11.126l-.506.724-.882.075a88.62 88.62 0 0 0-14.194 2.288l-1.77.446Zm7.11-24.863c-1.004 0-1.893.218-2.643.649-3.728 2.149-4.388 9.619-1.819 19.699a94.175 94.175 0 0 1 12.124-1.879 93.227 93.227 0 0 1 7.695-9.54c-5.85-5.696-11.389-8.929-15.357-8.929Zm35.959 76.358c-.004 0-.004 0 0 0-5.343 0-12.206-4.024-19.327-11.336l-1.275-1.309 1.275-1.309a88.278 88.278 0 0 0 9.079-11.13l.506-.724.877-.075a88.596 88.596 0 0 0 14.202-2.283l1.77-.447.502 1.755c3.701 13.065 2.58 22.437-3.09 25.703a8.926 8.926 0 0 1-4.519 1.155Zm-15.36-12.679c5.85 5.696 11.389 8.929 15.356 8.929h.004c1.002 0 1.894-.218 2.64-.649 3.728-2.149 4.392-9.622 1.819-19.702a93.687 93.687 0 0 1-12.128 1.878 92.38 92.38 0 0 1-7.691 9.544Zm22.467-38.816-1.77-.446a88.032 88.032 0 0 0-14.202-2.288l-.877-.075-.506-.724a87.908 87.908 0 0 0-9.079-11.126l-1.275-1.309 1.275-1.308c9.352-9.6 18.277-13.392 23.846-10.185 5.67 3.27 6.795 12.637 3.09 25.706l-.502 1.755Zm-14.775-6.394c4.282.39 8.351 1.024 12.127 1.879 2.573-10.08 1.909-17.55-1.819-19.699-3.705-2.141-10.668 1.14-18 8.28a93.055 93.055 0 0 1 7.691 9.54h.001Zm-28.291 57.889a8.927 8.927 0 0 1-4.522-1.155c-5.67-3.266-6.795-12.634-3.086-25.703l.495-1.755 1.77.447c4.331 1.091 9.108 1.86 14.194 2.283l.881.075.502.724a88.54 88.54 0 0 0 9.083 11.13l1.275 1.309-1.275 1.309c-7.118 7.312-13.98 11.336-19.317 11.336ZM52.56 90.936c-2.572 10.08-1.909 17.553 1.819 19.702 3.701 2.111 10.661-1.144 18-8.28a93.654 93.654 0 0 1-7.695-9.544 93.653 93.653 0 0 1-12.124-1.878ZM75 93.291c-3.086 0-6.259-.135-9.435-.398l-.881-.075-.506-.724a113.749 113.749 0 0 1-5.063-7.957 114.11 114.11 0 0 1-4.373-8.355l-.374-.799.375-.799c1.341-2.844 2.8-5.631 4.372-8.355a114.047 114.047 0 0 1 5.063-7.957l.506-.724.881-.075a111.8 111.8 0 0 1 18.874 0l.877.075.503.724a112.597 112.597 0 0 1 9.439 16.312l.378.799-.378.799a111.084 111.084 0 0 1-9.439 16.312l-.503.724-.877.075c-3.176.263-6.353.398-9.439.398Zm-8.239-4.065c5.55.416 10.928.416 16.482 0 3.1-4.533 5.853-9.294 8.234-14.243a107.17 107.17 0 0 0-8.238-14.242 108.68 108.68 0 0 0-16.478 0 106.717 106.717 0 0 0-8.238 14.242 109.266 109.266 0 0 0 8.238 14.243Z"/></svg>