<svg xmlns="http://www.w3.org/2000/svg" width="150" height="150" fill="none" viewBox="0 0 150 150"><path fill="#5408AA" d="M75 140c35.899 0 65-29.101 65-65 0-35.898-29.101-65-65-65-35.898 0-65 29.102-65 65 0 35.899 29.102 65 65 65Z"/><path fill="#fff" d="M59.525 89.912H71.24v2.703H59.525v2.227h36.843v-2.227H82.71v-2.703H97.9v-6.17H59.526v6.17ZM49.323 52.786h55.851V75.11h4.785V48H44.537v14.95h4.786V52.785Z"/><path fill="#fff" d="M33 101.928h24.982V64.452H33v37.476Zm13.018-1.882a1.203 1.203 0 1 1-.002-2.406 1.203 1.203 0 0 1 .002 2.406Zm-9.406-31.982h17.761l-.001 27.647h-17.76V68.064Zm62.985 8.486v26.382H117V76.55H99.597Zm9.055 1.09a.382.382 0 0 1 0 .763.385.385 0 0 1-.384-.382c0-.209.171-.38.384-.38Zm-2.26 1.266h4.512v.365h-4.512v-.365Zm2.109 22.888a.902.902 0 1 1 0-1.804.902.902 0 0 1 0 1.804Zm5.982-3.107c-4.073.022-10.348.038-12.366.02V80.569l12.366-.001v18.12Z"/></svg>