<svg xmlns="http://www.w3.org/2000/svg" width="150" height="150" fill="none" viewBox="0 0 150 150"><circle cx="75" cy="75" r="65" fill="#2B3A42"/><path fill="#0ACF83" d="M61.339 115c7.36 0 13.333-5.973 13.333-13.333V88.333H61.339c-7.36 0-13.334 5.974-13.334 13.334 0 7.36 5.974 13.333 13.334 13.333Z"/><path fill="#A259FF" d="M48.005 75c0-7.36 5.974-13.333 13.334-13.333h13.333v26.666H61.339c-7.36 0-13.334-5.973-13.334-13.333Z"/><path fill="#F24E1E" d="M48.009 48.333c0-7.36 5.973-13.333 13.333-13.333h13.333v26.667H61.342c-7.36 0-13.333-5.974-13.333-13.334Z"/><path fill="#FF7262" d="M74.672 35h13.333c7.36 0 13.334 5.973 13.334 13.333s-5.974 13.334-13.334 13.334H74.672V35Z"/><path fill="#1ABCFE" d="M101.339 75c0 7.36-5.974 13.333-13.334 13.333-7.36 0-13.333-5.973-13.333-13.333s5.973-13.333 13.333-13.333S101.34 67.64 101.34 75Z"/></svg>